<svg xmlns="http://www.w3.org/2000/svg" viewBox="0 0 640 300">
<defs><linearGradient id="bg" x1="0" y1="0" x2="1" y2="1"><stop stop-color="#b8d0c8"/><stop offset="1" stop-color="#eef4ed"/></linearGradient></defs>
<rect width="640" height="300" fill="url(#bg)"/><rect y="214" width="640" height="86" fill="#718c82"/><rect x="316" y="76" width="205" height="120" rx="8" fill="#243d43"/><rect x="329" y="88" width="179" height="92" fill="#a9d3d4"/><path d="M343 108h150M343 124h118M343 140h142" stroke="#347477" stroke-width="7"/><circle cx="176" cy="91" r="43" fill="#364b4b"/><path d="M115 214c6-64 31-91 61-91s58 27 67 91" fill="#243f3d"/><path d="M224 160l99 28 12 27-111 0z" fill="#fffdf1" stroke="#aec9ba" stroke-width="5"/><path d="M244 177h63M244 187h45" stroke="#53786b" stroke-width="5"/><rect x="460" y="23" width="112" height="58" rx="7" fill="#f7faf4" opacity=".9"/><text x="477" y="48" font-family="sans-serif" font-size="15" font-weight="700" fill="#286852">CONFIDENTIAL</text><path d="M497 62h39" stroke="#d52f35" stroke-width="4"/></svg>